<?xml version="1.0" standalone="no"?>
<svg xmlns:xlink="http://www.w3.org/1999/xlink" id="wave" style="transform:rotate(180deg); transition: 0.3s" viewBox="0 0 1440 100" version="1.1" xmlns="http://www.w3.org/2000/svg"><defs><linearGradient id="sw-gradient-0" x1="0" x2="0" y1="1" y2="0"><stop stop-color="rgba(255, 249, 234, 1)" offset="0%"/><stop stop-color="rgba(255, 249, 234, 1)" offset="100%"/></linearGradient></defs><path style="transform:translate(0, 0px); opacity:1" fill="url(#sw-gradient-0)" d="M0,20L34.3,31.7C68.6,43,137,67,206,70C274.3,73,343,57,411,50C480,43,549,47,617,50C685.7,53,754,57,823,58.3C891.4,60,960,60,1029,50C1097.1,40,1166,20,1234,21.7C1302.9,23,1371,47,1440,55C1508.6,63,1577,57,1646,48.3C1714.3,40,1783,30,1851,26.7C1920,23,1989,27,2057,38.3C2125.7,50,2194,70,2263,73.3C2331.4,77,2400,63,2469,48.3C2537.1,33,2606,17,2674,8.3C2742.9,0,2811,0,2880,13.3C2948.6,27,3017,53,3086,58.3C3154.3,63,3223,47,3291,35C3360,23,3429,17,3497,21.7C3565.7,27,3634,43,3703,43.3C3771.4,43,3840,27,3909,25C3977.1,23,4046,37,4114,50C4182.9,63,4251,77,4320,70C4388.6,63,4457,37,4526,26.7C4594.3,17,4663,23,4731,21.7C4800,20,4869,10,4903,5L4937.1,0L4937.1,100L4902.9,100C4868.6,100,4800,100,4731,100C4662.9,100,4594,100,4526,100C4457.1,100,4389,100,4320,100C4251.4,100,4183,100,4114,100C4045.7,100,3977,100,3909,100C3840,100,3771,100,3703,100C3634.3,100,3566,100,3497,100C3428.6,100,3360,100,3291,100C3222.9,100,3154,100,3086,100C3017.1,100,2949,100,2880,100C2811.4,100,2743,100,2674,100C2605.7,100,2537,100,2469,100C2400,100,2331,100,2263,100C2194.3,100,2126,100,2057,100C1988.6,100,1920,100,1851,100C1782.9,100,1714,100,1646,100C1577.1,100,1509,100,1440,100C1371.4,100,1303,100,1234,100C1165.7,100,1097,100,1029,100C960,100,891,100,823,100C754.3,100,686,100,617,100C548.6,100,480,100,411,100C342.9,100,274,100,206,100C137.1,100,69,100,34,100L0,100Z"/></svg>